<svg width="20" height="18" viewBox="0 0 20 18" fill="none" xmlns="http://www.w3.org/2000/svg">
<path d="M18.937 17.6H1.06599C0.913991 17.5996 0.764743 17.5594 0.633081 17.4834C0.50142 17.4075 0.39193 17.2984 0.315493 17.167C0.238448 17.036 0.197781 16.8868 0.197693 16.7348C0.197605 16.5828 0.2381 16.4336 0.314993 16.3025L9.25349 0.831497C9.32922 0.700283 9.43811 0.591286 9.56925 0.515438C9.70039 0.439589 9.84917 0.399556 10.0007 0.399354C10.1522 0.399151 10.301 0.438786 10.4324 0.514283C10.5637 0.589781 10.6729 0.698486 10.749 0.829497L19.6655 16.264C19.7499 16.3949 19.7974 16.5461 19.8031 16.7017C19.8088 16.8573 19.7725 17.0116 19.698 17.1483C19.6234 17.285 19.5134 17.3991 19.3795 17.4786C19.2456 17.5581 19.0927 17.6 18.937 17.6V17.6ZM10.0005 0.899997C9.93696 0.900655 9.87467 0.917709 9.81966 0.949507C9.76464 0.981305 9.71878 1.02677 9.68649 1.0815L0.747993 16.552C0.714578 16.6067 0.696856 16.6696 0.696768 16.7337C0.69668 16.7978 0.714228 16.8607 0.747493 16.9155C0.779828 16.9714 0.826251 17.0179 0.882134 17.0502C0.938018 17.0826 1.00141 17.0998 1.06599 17.1H18.937C19.0335 17.0988 19.1258 17.06 19.1942 16.9919C19.2625 16.9237 19.3016 16.8315 19.303 16.735C19.302 16.6585 19.2787 16.584 19.236 16.5205L10.317 1.0815C10.2845 1.02641 10.2382 0.980712 10.1827 0.948893C10.1273 0.917074 10.0645 0.900224 10.0005 0.899997Z" fill="#A6A7AA"/>
<path d="M10.001 12.974C9.9347 12.974 9.87111 12.9477 9.82423 12.9008C9.77735 12.8539 9.75101 12.7903 9.75101 12.724V3.932C9.75101 3.8657 9.77735 3.80211 9.82423 3.75522C9.87111 3.70834 9.9347 3.682 10.001 3.682C10.0673 3.682 10.1309 3.70834 10.1778 3.75522C10.2247 3.80211 10.251 3.8657 10.251 3.932V12.724C10.251 12.7903 10.2247 12.8539 10.1778 12.9008C10.1309 12.9477 10.0673 12.974 10.001 12.974Z" fill="#A6A7AA"/>
<path d="M9.99899 14.818C9.93269 14.818 9.8691 14.7917 9.82222 14.7448C9.77533 14.6979 9.74899 14.6343 9.74899 14.568V13.89C9.74899 13.8237 9.77533 13.7601 9.82222 13.7132C9.8691 13.6663 9.93269 13.64 9.99899 13.64C10.0653 13.64 10.1289 13.6663 10.1758 13.7132C10.2227 13.7601 10.249 13.8237 10.249 13.89V14.5675C10.2491 14.6004 10.2426 14.6329 10.2301 14.6633C10.2176 14.6937 10.1992 14.7213 10.1759 14.7446C10.1527 14.7679 10.1251 14.7863 10.0948 14.7989C10.0644 14.8115 10.0319 14.818 9.99899 14.818V14.818Z" fill="#A6A7AA"/>
</svg>
