<svg width="14" height="13" viewBox="0 0 14 13" fill="none" xmlns="http://www.w3.org/2000/svg">
<path d="M13.1891 4.51719L9.22187 3.94063L7.44844 0.345313C7.4 0.246875 7.32031 0.167187 7.22187 0.11875C6.975 -0.00312501 6.675 0.0984375 6.55156 0.345313L4.77812 3.94063L0.810936 4.51719C0.701561 4.53281 0.601561 4.58438 0.524999 4.6625C0.432439 4.75764 0.381434 4.88563 0.383192 5.01835C0.38495 5.15107 0.439327 5.27766 0.534374 5.37031L3.40469 8.16875L2.72656 12.1203C2.71066 12.2122 2.72083 12.3068 2.75592 12.3932C2.79102 12.4796 2.84963 12.5545 2.92511 12.6093C3.00059 12.6642 3.08992 12.6967 3.18297 12.7034C3.27602 12.71 3.36907 12.6904 3.45156 12.6469L7 10.7813L10.5484 12.6469C10.6453 12.6984 10.7578 12.7156 10.8656 12.6969C11.1375 12.65 11.3203 12.3922 11.2734 12.1203L10.5953 8.16875L13.4656 5.37031C13.5437 5.29375 13.5953 5.19375 13.6109 5.08438C13.6531 4.81094 13.4625 4.55781 13.1891 4.51719V4.51719Z" fill="#FFC239"/>
</svg>
