<svg width="78" height="66" viewBox="0 0 78 66" fill="none" xmlns="http://www.w3.org/2000/svg">
<path d="M76.6327 7.88036C77.0787 7.49477 77.4293 7.03802 77.6639 6.53678C77.8985 6.03554 78.0124 5.49988 77.9989 4.96106C77.9855 4.42225 77.845 3.8911 77.5857 3.39864C77.3263 2.90617 76.9533 2.46227 76.4884 2.09286C76.0235 1.72345 75.4761 1.43594 74.8781 1.24713C74.2801 1.05831 73.6435 0.971971 73.0055 0.993156C72.3676 1.01434 71.741 1.14263 71.1624 1.37051C70.5838 1.5984 70.0648 1.92133 69.6358 2.32042L44.0061 25.3065C43.1672 26.059 42.7001 27.0533 42.7001 28.0865C42.7001 29.1197 43.1672 30.114 44.0061 30.8665L69.6358 53.8526C70.0648 54.2517 70.5838 54.5746 71.1624 54.8025C71.741 55.0304 72.3676 55.1587 73.0055 55.1799C73.6435 55.2011 74.2801 55.1147 74.8781 54.9259C75.4761 54.7371 76.0235 54.4496 76.4884 54.0802C76.9533 53.7108 77.3263 53.2669 77.5857 52.7744C77.845 52.2819 77.9855 51.7508 77.9989 51.212C78.0124 50.6731 77.8985 50.1375 77.6639 49.6362C77.4293 49.135 77.0787 48.6783 76.6327 48.2927L54.1042 28.0865L76.6327 7.88036ZM9.35483 13.1374C8.92576 12.7383 8.40678 12.4154 7.8282 12.1875C7.24962 11.9596 6.62305 11.8313 5.98507 11.8102C5.3471 11.789 4.71051 11.8753 4.11251 12.0641C3.51451 12.2529 2.96708 12.5405 2.5022 12.9099C2.03732 13.2793 1.6643 13.7232 1.40495 14.2156C1.14559 14.7081 1.0051 15.2392 0.991664 15.7781C0.978233 16.3169 1.09214 16.8525 1.32672 17.3538C1.56131 17.855 1.91187 18.3118 2.35793 18.6974L24.8864 38.9035L2.35793 59.1097C1.91187 59.4953 1.56131 59.952 1.32672 60.4532C1.09214 60.9545 0.978233 61.4901 0.991664 62.029C1.0051 62.5678 1.14559 63.0989 1.40495 63.5914C1.6643 64.0838 2.03732 64.5278 2.5022 64.8972C2.96708 65.2666 3.51451 65.5541 4.11251 65.7429C4.71051 65.9317 5.3471 66.0181 5.98507 65.9969C6.62305 65.9757 7.24962 65.8474 7.8282 65.6195C8.40678 65.3916 8.92576 65.0687 9.35483 64.6696L34.9845 41.6835C35.8234 40.931 36.2905 39.9367 36.2905 38.9035C36.2905 37.8703 35.8234 36.876 34.9845 36.1235L9.35483 13.1374V13.1374Z" fill="#FFF"/>
</svg>
