<svg width="43" height="46" viewBox="0 0 43 46" fill="none" xmlns="http://www.w3.org/2000/svg">
<path d="M17.3214 2V8L14.5357 9.5L10.3571 5L4.78571 11L8.96429 15.5L7.57143 18.5H2V27.5H7.57143L8.96429 30.5L4.78571 35L10.3571 41L14.5357 36.5L17.3214 38V44H25.6786V38L28.4643 36.5L32.6429 41L38.2143 35L34.0357 30.5L35.4286 27.5H41V18.5H35.4286L34.0357 15.5L38.2143 11L32.6429 5L28.4643 9.5L25.6786 8V2H17.3214Z" stroke="#A6A7AA" stroke-width="3" stroke-linecap="round" stroke-linejoin="round"/>
<path d="M21.5 29C24.577 29 27.0714 26.3137 27.0714 23C27.0714 19.6863 24.577 17 21.5 17C18.423 17 15.9286 19.6863 15.9286 23C15.9286 26.3137 18.423 29 21.5 29Z" stroke="#A6A7AA" stroke-width="3" stroke-linecap="round" stroke-linejoin="round"/>
</svg>
