<svg width="16" height="16" fill="none" xmlns="http://www.w3.org/2000/svg"><path d="M.5 8c0 1.475.425 2.85 1.15 4h12.675a7.486 7.486 0 001.15-4c0-1.475-.425-2.85-1.15-4H1.65A7.486 7.486 0 00.5 8z" fill="#FFCE31"/><path d="M14.35 4A7.5 7.5 0 008 .5 7.5 7.5 0 001.65 4h12.7zM1.65 12A7.5 7.5 0 008 15.5a7.5 7.5 0 006.35-3.5H1.65z" fill="#ED4C5C"/><path d="M2.3 7.175h.8v.45h-.8v-.45zM2.3 10.475h.825v.425H2.3v-.425z" fill="#C8B100"/><path d="M2.225 9.775c-.075.05-.125.1-.125.125 0 .025.025.05.075.075.05.025.1.075.075.125.05-.05.075-.1.075-.15a.21.21 0 00-.1-.175" fill="#ED4C5C"/><path d="M2.425 7.625H3v2.85h-.575v-2.85z" fill="#fff"/><path d="M3.6 8.675c-.125-.05-.35-.1-.6-.1-.075 0-.175 0-.275.025-.35.05-.625.2-.6.3L2 8.625c-.025-.125.275-.275.65-.35.125-.025.25-.025.35-.025.25 0 .475.025.6.075v.35" fill="#ED4C5C"/><path d="M2.425 9.05c-.15 0-.275-.05-.275-.125 0-.05.05-.125.15-.175h.15l-.025.3zM3 8.825c.1.025.175.05.225.075.025.025-.075.125-.225.2v-.275" fill="#ED4C5C"/><path d="M2.05 9.6c-.025-.05.15-.15.375-.225.1-.025.175-.075.3-.125.3-.125.55-.3.5-.35l.05.3c.025.05-.175.2-.475.35-.1.05-.275.125-.375.15-.175.05-.325.15-.325.175L2.05 9.6" fill="#ED4C5C"/><path d="M7.675 7.175h.8v.45h-.8v-.45zM7.65 10.475h.825v.425H7.65v-.425z" fill="#C8B100"/><path d="M8.55 9.775c.075.05.125.1.125.125 0 .025-.025.05-.075.075-.05.05-.1.125-.075.15-.05-.05-.075-.1-.075-.15 0-.1.05-.175.1-.2" fill="#ED4C5C"/><path d="M7.775 7.625h.575v2.85h-.575v-2.85z" fill="#fff"/><path d="M7.175 8.675c.125-.05.35-.1.6-.1.075 0 .175 0 .275.025.35.05.625.2.6.3l.125-.3c.025-.125-.275-.275-.65-.35h-.35c-.25 0-.475.025-.6.075v.35" fill="#ED4C5C"/><path d="M8.35 9.05c.15 0 .275-.05.275-.125 0-.05-.05-.125-.15-.175h-.15l.025.3zM7.775 8.825c-.1.025-.175.05-.225.075-.025.025.075.125.225.2v-.275" fill="#ED4C5C"/><path d="M8.725 9.6c.025-.05-.15-.15-.375-.225-.1-.025-.175-.075-.3-.125-.3-.125-.55-.3-.5-.35l-.05.3c-.025.05.175.2.475.35.1.05.275.125.375.15.175.05.325.175.3.2l.075-.3M5.375 5.575c.475 0 1.45.1 1.8.45-.375.9-.975.525-1.8.525-.8 0-1.425.375-1.8-.525.35-.35 1.3-.45 1.8-.45z" fill="#ED4C5C"/><path d="M6.6 6.575c-.3-.175-.75-.2-1.225-.2-.475 0-.925.05-1.225.2l.1.425c.275.075.675.125 1.125.125.45 0 .825-.05 1.125-.125l.1-.425zM7.025 5.5a.892.892 0 00-.475-.15c-.075 0-.15 0-.225.025 0 0-.15-.2-.5-.2a.692.692 0 00-.325.075v-.025c-.025-.05-.075-.1-.125-.1s-.125.075-.125.125v.025a.692.692 0 00-.325-.075c-.35 0-.5.225-.5.2-.075-.025-.15-.025-.225-.025-1.15 0-.575.775-.575.775L3.75 6c-.275-.35-.025-.55.475-.55.075 0 .125 0 .175.025-.175.25.15.475.15.475l.075-.125c-.175-.125-.2-.55.3-.55.125 0 .225.025.325.1 0 .025-.025.375-.05.425l.2.175.2-.175c-.025-.075-.05-.4-.05-.425.075-.05.2-.1.325-.1.525 0 .525.425.3.55l.075.125s.275-.225.15-.475c.05 0 .125-.025.175-.025.6 0 .625.45.475.55l.1.15c-.05 0 .225-.35-.125-.65" fill="#C8B100"/><path d="M5.225 5.025c0-.075.075-.15.15-.15.1 0 .15.075.15.15s-.075.15-.15.15a.161.161 0 01-.15-.15z" fill="#005BBF"/><path d="M5.325 4.6v.075H5.25v.075h.075V5h-.1v.075h.3l.025-.05L5.525 5h-.1v-.25H5.5v-.075h-.075V4.6h-.1z" fill="#C8B100"/><path d="M5.375 7.075c-.4 0-.75-.05-1.025-.125a3.957 3.957 0 011.025-.125c.4 0 .75.05 1.025.125-.25.075-.625.125-1.025.125z" fill="#ED4C5C"/><path d="M5.4 11.4a3.32 3.32 0 01-1.325-.3.822.822 0 01-.475-.75v-1.2h3.6v1.2c0 .325-.2.625-.475.75-.4.2-.85.3-1.325.3zM5.375 7.15h1.8v2h-1.8v-2z" fill="#fff"/><path d="M5.4 10.35c0 .475-.4.85-.9.85s-.9-.375-.9-.85v-1.2h1.8v1.2z" fill="#ED4C5C"/><path d="M3.975 11.05c.05.025.125.075.225.1V9.1H4l-.025 1.95zM3.575 10.325c0 .25.1.45.2.55V9.1h-.2v1.225z" fill="#C8B100"/><path d="M4.375 11.2h.2V9.1h-.2v2.1z" fill="#C7B500"/><path d="M4.775 11.15c.075-.025.175-.075.225-.1V9.1h-.2l-.025 2.05" fill="#C8B100"/><path d="M3.575 7.15h1.8v2h-1.8v-2z" fill="#ED4C5C"/><path d="M5.2 10.875c.1-.075.175-.25.2-.45v-1.3h-.2v1.75z" fill="#C8B100"/><path d="M7.2 9.15v1.2c0 .475-.4.85-.9.85s-.9-.375-.9-.85v-1.2h1.8M6.55 7.5c.075.15.075.525-.15.45.05.025.075.2.15.3.125.15.275.025.25-.15-.05-.275-.025-.45.025-.725 0 .025.125.025.175-.025-.025.075-.05.175 0 .175-.05.075-.175.2-.2.275-.025.175.25.5-.05.575-.2.05-.075.2 0 .275 0 0-.1.325-.05.3-.2.075-.15-.1-.15-.1.1-.3-.175-.325-.15-.375-.25-.025.025.225-.2.225-.05 0-.15.05-.15.05-.275-.025-.125-.275-.025-.25.075.025.15.15.15-.025 0 0-.125-.2.2-.2-.125 0-.2-.1-.25-.225-.05.025-.125.15-.4.175 0 0-.075-.275 0-.225.1.05.15.05.25-.05-.05-.075-.35-.175-.3-.35 0-.05.15-.125.15-.125-.025.125.05.25.2.25.2.025.125-.05.15-.1.025-.05.175.025.125-.1 0-.025-.175-.05-.125-.125.1-.125.25-.025.375.1M5.4 11.15l-.05-.125.05-.15.05.15-.05.125z" fill="#ED4C5C"/><path d="M4.125 7.575V7.7h.05v.1H4.05v.25h.075v.55h-.15v.275H5V8.6h-.125v-.55h.05V7.8H4.8v-.1h.075v-.125h-.25V7.7h.05v.1H4.55v-.3h.075v-.125H4.35V7.5h.075v.3H4.3v-.1h.05v-.125h-.225zM6.95 10.65V9.4h-1.3v1.25l.6.275h.075l.625-.275zm-.7-1.15v.425L5.825 9.5h.425zm-.525.025l.5.5-.5.5v-1zm.05 1.1l.475-.475v.7l-.475-.225zm.55.2v-.7l.475.475-.475.225zm.525-.3l-.5-.5.5-.5v1zM6.325 9.5h.425l-.425.425V9.5z" fill="#C8B100"/><path d="M4.8 9.125c0-.375.25-.65.575-.65.325 0 .575.3.575.65 0 .35-.25.65-.575.65-.325 0-.575-.275-.575-.65z" fill="#ED4C5C"/><path d="M4.975 9.125c0-.275.175-.475.4-.475.225 0 .4.225.4.475 0 .275-.175.475-.4.475-.2.025-.4-.2-.4-.475z" fill="#005BBF"/><path d="M5.2 8.8l-.1.275.075.025-.05.1h.15l-.05-.1.075-.025-.1-.275M5.575 8.8l-.1.275.075.025-.05.1h.15l-.025-.1.075-.025-.125-.275M5.4 9.125l-.125.275.075.025-.025.1h.125l-.025-.1L5.5 9.4l-.1-.275z" fill="#C8B100"/></svg>