<svg width="14" height="14" viewBox="0 0 14 14" fill="none" xmlns="http://www.w3.org/2000/svg">
<path d="M1.62504 6.87813C1.64066 6.19531 1.78129 5.53281 2.04535 4.90938C2.31566 4.26875 2.70316 3.69531 3.19691 3.2C3.69066 2.70469 4.26566 2.31719 4.90629 2.04688C5.56879 1.76719 6.27191 1.625 6.99848 1.625C7.72504 1.625 8.42816 1.76719 9.0891 2.04688C9.72789 2.31663 10.308 2.70831 10.7969 3.2C10.9516 3.35469 11.0969 3.51875 11.2313 3.69063L10.2907 4.425C10.2721 4.4394 10.2579 4.45875 10.2498 4.48085C10.2417 4.50294 10.24 4.52687 10.2449 4.54988C10.2498 4.5729 10.2611 4.59406 10.2775 4.61094C10.2939 4.62783 10.3147 4.63974 10.3375 4.64531L13.0829 5.31719C13.161 5.33594 13.2375 5.27656 13.2375 5.19688L13.25 2.37031C13.25 2.26562 13.1297 2.20625 13.0485 2.27187L12.1672 2.96094C10.9657 1.42344 9.09691 0.4375 6.99691 0.4375C3.41723 0.4375 0.504727 3.30625 0.437539 6.87187C0.437122 6.88855 0.440047 6.90514 0.446142 6.92067C0.452237 6.9362 0.461378 6.95035 0.473027 6.96229C0.484676 6.97423 0.498598 6.98372 0.513971 6.9902C0.529344 6.99667 0.545858 7.00001 0.562539 7H1.50004C1.56879 7 1.62348 6.94531 1.62504 6.87813ZM13.4375 7H12.5C12.4313 7 12.3766 7.05469 12.375 7.12187C12.3594 7.80469 12.2188 8.46719 11.9547 9.09062C11.6844 9.73125 11.2969 10.3063 10.8032 10.8C10.3048 11.3004 9.7123 11.6972 9.05984 11.9675C8.40737 12.2379 7.70785 12.3763 7.0016 12.375C6.29559 12.3763 5.59631 12.2378 4.9441 11.9675C4.29189 11.6972 3.69967 11.3004 3.2016 10.8C3.04691 10.6453 2.9016 10.4812 2.76723 10.3094L3.70785 9.575C3.72646 9.5606 3.74063 9.54124 3.74873 9.51915C3.75683 9.49706 3.75853 9.47313 3.75363 9.45012C3.74873 9.4271 3.73744 9.40594 3.72105 9.38906C3.70466 9.37217 3.68384 9.36026 3.66098 9.35469L0.915664 8.68281C0.837539 8.66406 0.760977 8.72344 0.760977 8.80313L0.750039 11.6313C0.750039 11.7359 0.870352 11.7953 0.951602 11.7297L1.83285 11.0406C3.03441 12.5766 4.90316 13.5625 7.00316 13.5625C10.5844 13.5625 13.4954 10.6922 13.5625 7.12813C13.563 7.11145 13.56 7.09486 13.5539 7.07933C13.5478 7.0638 13.5387 7.04965 13.5271 7.03771C13.5154 7.02577 13.5015 7.01628 13.4861 7.0098C13.4707 7.00333 13.4542 6.99999 13.4375 7V7Z" fill="#A6A7AA"/>
</svg>
