<svg width="16" height="16" viewBox="0 0 16 16" fill="none" xmlns="http://www.w3.org/2000/svg">
<path d="M8.805 8L11.235 5.57C11.3169 5.47435 11.3597 5.35131 11.3549 5.22547C11.35 5.09964 11.2978 4.98027 11.2088 4.89122C11.1197 4.80217 11.0004 4.75001 10.8745 4.74515C10.7487 4.74029 10.6256 4.78309 10.53 4.865L8.1 7.27L5.655 4.825C5.55935 4.74309 5.43631 4.70029 5.31047 4.70515C5.18463 4.71001 5.06526 4.76217 4.97622 4.85122C4.88717 4.94027 4.835 5.05964 4.83014 5.18547C4.82528 5.31131 4.86808 5.43435 4.95 5.53L7.39 8L5 10.36C4.94766 10.4048 4.90515 10.46 4.87514 10.522C4.84512 10.584 4.82826 10.6516 4.8256 10.7205C4.82294 10.7893 4.83454 10.858 4.85968 10.9222C4.88482 10.9863 4.92295 11.0446 4.97167 11.0933C5.0204 11.1421 5.07867 11.1802 5.14284 11.2053C5.207 11.2305 5.27566 11.2421 5.34452 11.2394C5.41338 11.2367 5.48095 11.2199 5.54298 11.1899C5.60502 11.1599 5.66017 11.1173 5.705 11.065L8.09 8.68L10.46 11.05C10.5556 11.1319 10.6787 11.1747 10.8045 11.1699C10.9304 11.165 11.0497 11.1128 11.1388 11.0238C11.2278 10.9347 11.28 10.8154 11.2849 10.6895C11.2897 10.5637 11.2469 10.4407 11.165 10.345L8.805 8Z" fill="#A6A7AA"/>
<path d="M8 16C6.41775 16 4.87103 15.5308 3.55544 14.6518C2.23985 13.7727 1.21447 12.5233 0.608967 11.0615C0.00346625 9.59966 -0.15496 7.99113 0.153721 6.43928C0.462403 4.88743 1.22433 3.46197 2.34315 2.34315C3.46197 1.22433 4.88743 0.462399 6.43928 0.153718C7.99113 -0.154964 9.59966 0.00346243 11.0615 0.608963C12.5233 1.21446 13.7727 2.23984 14.6518 3.55544C15.5308 4.87103 16 6.41775 16 8C16 10.1217 15.1571 12.1566 13.6569 13.6569C12.1566 15.1571 10.1217 16 8 16V16ZM8 1C6.61553 1 5.26216 1.41054 4.11101 2.17971C2.95987 2.94888 2.06266 4.04213 1.53285 5.32122C1.00303 6.6003 0.86441 8.00777 1.13451 9.36563C1.4046 10.7235 2.07129 11.9708 3.05026 12.9497C4.02922 13.9287 5.2765 14.5954 6.63437 14.8655C7.99224 15.1356 9.39971 14.997 10.6788 14.4672C11.9579 13.9373 13.0511 13.0401 13.8203 11.889C14.5895 10.7378 15 9.38447 15 8C15 6.14348 14.2625 4.36301 12.9498 3.05025C11.637 1.7375 9.85652 1 8 1V1Z" fill="#A6A7AA"/>
</svg>
