<svg width="16" height="16" fill="none" xmlns="http://www.w3.org/2000/svg"><path d="M12 1.65A7.55 7.55 0 008 .5v1.15h4z" fill="#ED4C5C"/><path d="M8 2.8h5.4A8.785 8.785 0 0012 1.65H8V2.8z" fill="#fff"/><path d="M8 3.95h6.325a8.319 8.319 0 00-.9-1.15H8v1.15z" fill="#ED4C5C"/><path d="M8 5.1h6.925c-.175-.4-.375-.8-.6-1.15H8V5.1z" fill="#fff"/><path d="M8 6.25h7.3c-.1-.4-.225-.775-.375-1.15H8v1.15z" fill="#ED4C5C"/><path d="M8 7.425h7.475c-.025-.4-.1-.775-.175-1.15H8v1.15" fill="#fff"/><path d="M15.475 7.425H8V8H.5c0 .2 0 .375.025.575h14.95c.025-.2.025-.375.025-.575 0-.2 0-.4-.025-.575" fill="#ED4C5C"/><path d="M.7 9.725h14.6c.1-.375.15-.75.175-1.15H.525C.55 8.95.6 9.35.7 9.725z" fill="#fff"/><path d="M1.075 10.875h13.85c.15-.375.275-.75.375-1.15H.7c.1.4.225.775.375 1.15z" fill="#ED4C5C"/><path d="M1.675 12.025h12.65c.225-.375.425-.75.6-1.15H1.075c.175.4.375.775.6 1.15" fill="#fff"/><path d="M2.575 13.175h10.85c.325-.35.65-.75.9-1.15H1.675c.25.425.575.8.9 1.15z" fill="#ED4C5C"/><path d="M3.975 14.325h8.05c.525-.325.975-.725 1.4-1.15H2.575c.425.45.9.825 1.4 1.15z" fill="#fff"/><path d="M8 15.5c1.475 0 2.85-.425 4.025-1.175h-8.05A7.438 7.438 0 008 15.5z" fill="#ED4C5C"/><path d="M4 1.65c-.525.325-1 .725-1.425 1.15-.35.35-.65.75-.9 1.15-.225.375-.45.75-.6 1.15C.925 5.475.8 5.85.7 6.25.6 6.625.55 7 .525 7.4.5 7.6.5 7.8.5 8H8V.5a7.55 7.55 0 00-4 1.15z" fill="#428BC1"/><path d="M6.25.75l.125.375h.375l-.3.25.1.375-.3-.225-.3.225.1-.375-.3-.25h.375L6.25.75zM7.25 2.25l.125.375h.375l-.3.25.1.375-.3-.225-.3.225.1-.375-.3-.25h.375l.125-.375zM5.25 2.25l.125.375h.375l-.3.25.1.375-.3-.225-.3.225.1-.375-.3-.25h.375l.125-.375zM6.25 3.75l.125.375h.375l-.3.25.1.375-.3-.225-.3.225.1-.375-.3-.25h.375l.125-.375zM4.25 3.75l.125.375h.375l-.3.25.1.375-.3-.225-.3.225.1-.375-.3-.25h.375l.125-.375zM2.25 3.75l.125.375h.375l-.3.25.1.375-.3-.225-.3.225.1-.375-.3-.25h.375l.125-.375zM7.25 5.25l.125.375h.375l-.3.25.1.375-.3-.225-.3.225.1-.375-.3-.25h.375l.125-.375zM5.25 5.25l.125.375h.375l-.3.25.1.375-.3-.225-.3.225.1-.375-.3-.25h.375l.125-.375zM3.25 5.25l.125.375h.375l-.3.25.1.375-.3-.225-.3.225.1-.375-.3-.25h.375l.125-.375zM6.25 6.75l.125.375h.375l-.3.25.1.375-.3-.225-.3.225.1-.375-.3-.25h.375l.125-.375zM4.25 6.75l.125.375h.375l-.3.25.1.375-.3-.225-.3.225.1-.375-.3-.25h.375l.125-.375zM2.25 6.75l.125.375h.375l-.3.25.1.375-.3-.225-.3.225.1-.375-.3-.25h.375l.125-.375zM2.95 3.25l.3-.225.3.225-.125-.375.3-.25H3.35l-.1-.375-.125.375h-.35l.3.225-.125.4M.95 6.25l.3-.225.3.225-.125-.375.3-.25h-.35L1.25 5.25l-.125.375h-.25c0 .025-.025.05-.025.075l.2.15-.1.4" fill="#fff"/></svg>